<mxfile host="Electron" agent="Mozilla/5.0 (Macintosh; Intel Mac OS X 10_15_7) AppleWebKit/537.36 (KHTML, like Gecko) draw.io/26.2.2 Chrome/134.0.6998.178 Electron/35.1.2 Safari/537.36" version="26.2.2" pages="3">
  <diagram id="C5RBs43oDa-KdzZeNtuy" name="domain design">
    <mxGraphModel dx="1187" dy="679" grid="1" gridSize="10" guides="1" tooltips="1" connect="1" arrows="1" fold="1" page="1" pageScale="1" pageWidth="827" pageHeight="1169" math="0" shadow="0">
      <root>
        <mxCell id="WIyWlLk6GJQsqaUBKTNV-0" />
        <mxCell id="WIyWlLk6GJQsqaUBKTNV-1" parent="WIyWlLk6GJQsqaUBKTNV-0" />
        <mxCell id="-6r4pq_aBzaN0x15U1-c-16" value="" style="rounded=1;whiteSpace=wrap;html=1;" parent="WIyWlLk6GJQsqaUBKTNV-1" vertex="1">
          <mxGeometry x="70" y="70" width="660" height="640" as="geometry" />
        </mxCell>
        <mxCell id="zkfFHV4jXpPFQw0GAbJ--0" value="Account" style="swimlane;fontStyle=2;align=center;verticalAlign=top;childLayout=stackLayout;horizontal=1;startSize=26;horizontalStack=0;resizeParent=1;resizeLast=0;collapsible=1;marginBottom=0;rounded=0;shadow=0;strokeWidth=1;" parent="WIyWlLk6GJQsqaUBKTNV-1" vertex="1">
          <mxGeometry x="110" y="120" width="270" height="290" as="geometry">
            <mxRectangle x="230" y="140" width="160" height="26" as="alternateBounds" />
          </mxGeometry>
        </mxCell>
        <mxCell id="zkfFHV4jXpPFQw0GAbJ--1" value="- AccountStatus status&#xa;- List cards&#xa;- Instant createdAt&#xa;- Instant lastUpdated" style="text;align=left;verticalAlign=top;spacingLeft=4;spacingRight=4;overflow=hidden;rotatable=0;points=[[0,0.5],[1,0.5]];portConstraint=eastwest;" parent="zkfFHV4jXpPFQw0GAbJ--0" vertex="1">
          <mxGeometry y="26" width="270" height="74" as="geometry" />
        </mxCell>
        <mxCell id="zkfFHV4jXpPFQw0GAbJ--4" value="" style="line;html=1;strokeWidth=1;align=left;verticalAlign=middle;spacingTop=-1;spacingLeft=3;spacingRight=3;rotatable=0;labelPosition=right;points=[];portConstraint=eastwest;" parent="zkfFHV4jXpPFQw0GAbJ--0" vertex="1">
          <mxGeometry y="100" width="270" height="8" as="geometry" />
        </mxCell>
        <mxCell id="-6r4pq_aBzaN0x15U1-c-4" value="- String email(ID)&#xa;- String contractID(EMAID)&#xa;&#xa;+ create(email, contractID):: Account&#xa;+ activate()&#xa;+ deactive()&#xa;+ assignCard(card)::void&#xa;+ changeCardStatus(cardId, status)::void" style="text;align=left;verticalAlign=top;spacingLeft=4;spacingRight=4;overflow=hidden;rotatable=0;points=[[0,0.5],[1,0.5]];portConstraint=eastwest;" parent="zkfFHV4jXpPFQw0GAbJ--0" vertex="1">
          <mxGeometry y="108" width="270" height="172" as="geometry" />
        </mxCell>
        <mxCell id="zkfFHV4jXpPFQw0GAbJ--6" value="AccountStatus" style="swimlane;fontStyle=0;align=center;verticalAlign=top;childLayout=stackLayout;horizontal=1;startSize=26;horizontalStack=0;resizeParent=1;resizeLast=0;collapsible=1;marginBottom=0;rounded=0;shadow=0;strokeWidth=1;" parent="WIyWlLk6GJQsqaUBKTNV-1" vertex="1">
          <mxGeometry x="151" y="520" width="160" height="138" as="geometry">
            <mxRectangle x="130" y="380" width="160" height="26" as="alternateBounds" />
          </mxGeometry>
        </mxCell>
        <mxCell id="zkfFHV4jXpPFQw0GAbJ--7" value="Created&#xa;Activated&#xa;Deactivated" style="text;align=left;verticalAlign=top;spacingLeft=4;spacingRight=4;overflow=hidden;rotatable=0;points=[[0,0.5],[1,0.5]];portConstraint=eastwest;" parent="zkfFHV4jXpPFQw0GAbJ--6" vertex="1">
          <mxGeometry y="26" width="160" height="104" as="geometry" />
        </mxCell>
        <mxCell id="zkfFHV4jXpPFQw0GAbJ--13" value="CardStatus" style="swimlane;fontStyle=0;align=center;verticalAlign=top;childLayout=stackLayout;horizontal=1;startSize=26;horizontalStack=0;resizeParent=1;resizeLast=0;collapsible=1;marginBottom=0;rounded=0;shadow=0;strokeWidth=1;" parent="WIyWlLk6GJQsqaUBKTNV-1" vertex="1">
          <mxGeometry x="508" y="520" width="160" height="110" as="geometry">
            <mxRectangle x="340" y="380" width="170" height="26" as="alternateBounds" />
          </mxGeometry>
        </mxCell>
        <mxCell id="zkfFHV4jXpPFQw0GAbJ--14" value="Created&#xa;Activated&#xa;Assigned&#xa;Deactivated&#xa;" style="text;align=left;verticalAlign=top;spacingLeft=4;spacingRight=4;overflow=hidden;rotatable=0;points=[[0,0.5],[1,0.5]];portConstraint=eastwest;" parent="zkfFHV4jXpPFQw0GAbJ--13" vertex="1">
          <mxGeometry y="26" width="160" height="74" as="geometry" />
        </mxCell>
        <mxCell id="zkfFHV4jXpPFQw0GAbJ--17" value="Card" style="swimlane;fontStyle=0;align=center;verticalAlign=top;childLayout=stackLayout;horizontal=1;startSize=26;horizontalStack=0;resizeParent=1;resizeLast=0;collapsible=1;marginBottom=0;rounded=0;shadow=0;strokeWidth=1;" parent="WIyWlLk6GJQsqaUBKTNV-1" vertex="1">
          <mxGeometry x="508" y="120" width="160" height="290" as="geometry">
            <mxRectangle x="550" y="140" width="160" height="26" as="alternateBounds" />
          </mxGeometry>
        </mxCell>
        <mxCell id="zkfFHV4jXpPFQw0GAbJ--18" value="- CardStatus status&#xa;- Instant createdAt&#xa;- Instant lastUpdated" style="text;align=left;verticalAlign=top;spacingLeft=4;spacingRight=4;overflow=hidden;rotatable=0;points=[[0,0.5],[1,0.5]];portConstraint=eastwest;" parent="zkfFHV4jXpPFQw0GAbJ--17" vertex="1">
          <mxGeometry y="26" width="160" height="74" as="geometry" />
        </mxCell>
        <mxCell id="zkfFHV4jXpPFQw0GAbJ--23" value="" style="line;html=1;strokeWidth=1;align=left;verticalAlign=middle;spacingTop=-1;spacingLeft=3;spacingRight=3;rotatable=0;labelPosition=right;points=[];portConstraint=eastwest;" parent="zkfFHV4jXpPFQw0GAbJ--17" vertex="1">
          <mxGeometry y="100" width="160" height="8" as="geometry" />
        </mxCell>
        <mxCell id="-6r4pq_aBzaN0x15U1-c-5" value="- String cardId(uuid)&#xa;- String uid(RFID)&#xa;&#xa;+ create(cardId, uid)::Card&#xa;+ activate()::void&#xa;+ deactive()::void" style="text;align=left;verticalAlign=top;spacingLeft=4;spacingRight=4;overflow=hidden;rotatable=0;points=[[0,0.5],[1,0.5]];portConstraint=eastwest;" parent="zkfFHV4jXpPFQw0GAbJ--17" vertex="1">
          <mxGeometry y="108" width="160" height="142" as="geometry" />
        </mxCell>
        <mxCell id="-6r4pq_aBzaN0x15U1-c-0" value="1" style="endArrow=open;html=1;endSize=12;startArrow=diamondThin;startSize=14;startFill=1;edgeStyle=orthogonalEdgeStyle;align=left;verticalAlign=bottom;rounded=0;exitX=1;exitY=0.5;exitDx=0;exitDy=0;entryX=0;entryY=0.5;entryDx=0;entryDy=0;" parent="WIyWlLk6GJQsqaUBKTNV-1" edge="1">
          <mxGeometry x="-1" y="3" relative="1" as="geometry">
            <mxPoint x="380" y="185" as="sourcePoint" />
            <mxPoint x="508" y="185" as="targetPoint" />
          </mxGeometry>
        </mxCell>
        <mxCell id="-6r4pq_aBzaN0x15U1-c-1" value="n" style="text;html=1;align=center;verticalAlign=middle;resizable=0;points=[];autosize=1;strokeColor=none;fillColor=none;" parent="WIyWlLk6GJQsqaUBKTNV-1" vertex="1">
          <mxGeometry x="475" y="158" width="30" height="30" as="geometry" />
        </mxCell>
        <mxCell id="-6r4pq_aBzaN0x15U1-c-6" value="contains" style="text;html=1;align=center;verticalAlign=middle;resizable=0;points=[];autosize=1;strokeColor=none;fillColor=none;" parent="WIyWlLk6GJQsqaUBKTNV-1" vertex="1">
          <mxGeometry x="405" y="158" width="70" height="30" as="geometry" />
        </mxCell>
        <mxCell id="-6r4pq_aBzaN0x15U1-c-7" value="1" style="endArrow=open;html=1;endSize=12;startArrow=diamondThin;startSize=14;startFill=0;edgeStyle=orthogonalEdgeStyle;align=left;verticalAlign=bottom;rounded=0;entryX=0.5;entryY=0;entryDx=0;entryDy=0;" parent="WIyWlLk6GJQsqaUBKTNV-1" target="zkfFHV4jXpPFQw0GAbJ--6" edge="1">
          <mxGeometry x="-1" y="3" relative="1" as="geometry">
            <mxPoint x="230" y="410" as="sourcePoint" />
            <mxPoint x="390" y="410" as="targetPoint" />
          </mxGeometry>
        </mxCell>
        <mxCell id="-6r4pq_aBzaN0x15U1-c-9" value="1" style="endArrow=open;html=1;endSize=12;startArrow=diamondThin;startSize=14;startFill=0;edgeStyle=orthogonalEdgeStyle;align=left;verticalAlign=bottom;rounded=0;entryX=0.5;entryY=0;entryDx=0;entryDy=0;movable=1;resizable=1;rotatable=1;deletable=1;editable=1;locked=0;connectable=1;" parent="WIyWlLk6GJQsqaUBKTNV-1" edge="1">
          <mxGeometry x="-1" y="3" relative="1" as="geometry">
            <mxPoint x="587.24" y="410" as="sourcePoint" />
            <mxPoint x="588.24" y="520" as="targetPoint" />
          </mxGeometry>
        </mxCell>
        <mxCell id="-6r4pq_aBzaN0x15U1-c-10" value="EMAID&lt;div&gt;factory&lt;/div&gt;" style="ellipse;shape=cloud;whiteSpace=wrap;html=1;" parent="WIyWlLk6GJQsqaUBKTNV-1" vertex="1">
          <mxGeometry x="300" y="210" width="120" height="80" as="geometry" />
        </mxCell>
        <mxCell id="-6r4pq_aBzaN0x15U1-c-11" value="RFID&lt;div&gt;factory&lt;/div&gt;" style="ellipse;shape=cloud;whiteSpace=wrap;html=1;" parent="WIyWlLk6GJQsqaUBKTNV-1" vertex="1">
          <mxGeometry x="730" y="60" width="120" height="80" as="geometry" />
        </mxCell>
        <mxCell id="-6r4pq_aBzaN0x15U1-c-13" style="edgeStyle=orthogonalEdgeStyle;rounded=0;orthogonalLoop=1;jettySize=auto;html=1;exitX=0.55;exitY=0.95;exitDx=0;exitDy=0;exitPerimeter=0;entryX=1.012;entryY=0.336;entryDx=0;entryDy=0;entryPerimeter=0;flowAnimation=1;" parent="WIyWlLk6GJQsqaUBKTNV-1" source="-6r4pq_aBzaN0x15U1-c-11" target="-6r4pq_aBzaN0x15U1-c-5" edge="1">
          <mxGeometry relative="1" as="geometry" />
        </mxCell>
        <mxCell id="-6r4pq_aBzaN0x15U1-c-15" value="RFID" style="text;html=1;align=center;verticalAlign=middle;resizable=0;points=[];autosize=1;strokeColor=none;fillColor=none;" parent="WIyWlLk6GJQsqaUBKTNV-1" vertex="1">
          <mxGeometry x="705" y="218" width="50" height="30" as="geometry" />
        </mxCell>
        <mxCell id="-6r4pq_aBzaN0x15U1-c-17" value="Account &amp;amp; Card status change event consumer" style="ellipse;shape=cloud;whiteSpace=wrap;html=1;" parent="WIyWlLk6GJQsqaUBKTNV-1" vertex="1">
          <mxGeometry x="400" y="750" width="390" height="170" as="geometry" />
        </mxCell>
        <mxCell id="-6r4pq_aBzaN0x15U1-c-20" value="" style="shape=cylinder3;whiteSpace=wrap;html=1;boundedLbl=1;backgroundOutline=1;size=15;rotation=-90;" parent="WIyWlLk6GJQsqaUBKTNV-1" vertex="1">
          <mxGeometry x="370" y="470" width="70" height="110" as="geometry" />
        </mxCell>
        <mxCell id="-6r4pq_aBzaN0x15U1-c-21" value="Status Change Event MQ" style="text;html=1;align=center;verticalAlign=middle;resizable=0;points=[];autosize=1;strokeColor=none;fillColor=none;" parent="WIyWlLk6GJQsqaUBKTNV-1" vertex="1">
          <mxGeometry x="335" y="560" width="160" height="30" as="geometry" />
        </mxCell>
        <mxCell id="-6r4pq_aBzaN0x15U1-c-22" style="edgeStyle=orthogonalEdgeStyle;rounded=0;orthogonalLoop=1;jettySize=auto;html=1;exitX=0.75;exitY=1;exitDx=0;exitDy=0;entryX=0.855;entryY=0;entryDx=0;entryDy=4.35;entryPerimeter=0;flowAnimation=1;" parent="WIyWlLk6GJQsqaUBKTNV-1" source="zkfFHV4jXpPFQw0GAbJ--0" target="-6r4pq_aBzaN0x15U1-c-20" edge="1">
          <mxGeometry relative="1" as="geometry" />
        </mxCell>
        <mxCell id="-6r4pq_aBzaN0x15U1-c-23" style="edgeStyle=orthogonalEdgeStyle;rounded=0;orthogonalLoop=1;jettySize=auto;html=1;exitX=0.25;exitY=1;exitDx=0;exitDy=0;entryX=0.855;entryY=0;entryDx=0;entryDy=4.35;entryPerimeter=0;flowAnimation=1;" parent="WIyWlLk6GJQsqaUBKTNV-1" source="zkfFHV4jXpPFQw0GAbJ--17" target="-6r4pq_aBzaN0x15U1-c-20" edge="1">
          <mxGeometry relative="1" as="geometry" />
        </mxCell>
        <mxCell id="-6r4pq_aBzaN0x15U1-c-24" style="edgeStyle=orthogonalEdgeStyle;rounded=0;orthogonalLoop=1;jettySize=auto;html=1;exitX=0.5;exitY=1;exitDx=0;exitDy=0;exitPerimeter=0;entryX=0.25;entryY=0.25;entryDx=0;entryDy=0;entryPerimeter=0;flowAnimation=1;" parent="WIyWlLk6GJQsqaUBKTNV-1" source="-6r4pq_aBzaN0x15U1-c-20" target="-6r4pq_aBzaN0x15U1-c-17" edge="1">
          <mxGeometry relative="1" as="geometry">
            <Array as="points">
              <mxPoint x="490" y="525" />
              <mxPoint x="490" y="767" />
              <mxPoint x="497" y="767" />
            </Array>
          </mxGeometry>
        </mxCell>
        <mxCell id="-6r4pq_aBzaN0x15U1-c-25" value="eMSP Account &amp;amp; Card" style="text;html=1;align=center;verticalAlign=middle;resizable=0;points=[];autosize=1;strokeColor=none;fillColor=none;" parent="WIyWlLk6GJQsqaUBKTNV-1" vertex="1">
          <mxGeometry x="270" y="38" width="140" height="30" as="geometry" />
        </mxCell>
      </root>
    </mxGraphModel>
  </diagram>
  <diagram id="fd1JX71mIcqemoa-0M0A" name="deploy to AWS">
    <mxGraphModel dx="1115" dy="799" grid="1" gridSize="10" guides="1" tooltips="1" connect="1" arrows="1" fold="1" page="1" pageScale="1" pageWidth="827" pageHeight="1169" math="0" shadow="0">
      <root>
        <mxCell id="0" />
        <mxCell id="1" parent="0" />
        <mxCell id="VnJmO9Q_f5JQXWkYsC5i-42" value="" style="rounded=1;whiteSpace=wrap;html=1;fillColor=#ffe6cc;strokeColor=#d79b00;" parent="1" vertex="1">
          <mxGeometry x="700" y="20" width="210" height="760" as="geometry" />
        </mxCell>
        <mxCell id="VnJmO9Q_f5JQXWkYsC5i-32" value="" style="rounded=1;whiteSpace=wrap;html=1;fillColor=#d5e8d4;strokeColor=#82b366;" parent="1" vertex="1">
          <mxGeometry x="270" y="30" width="390" height="610" as="geometry" />
        </mxCell>
        <mxCell id="VnJmO9Q_f5JQXWkYsC5i-31" value="" style="rounded=1;whiteSpace=wrap;html=1;fillColor=#dae8fc;strokeColor=#6c8ebf;" parent="1" vertex="1">
          <mxGeometry x="50" y="30" width="190" height="740" as="geometry" />
        </mxCell>
        <mxCell id="VnJmO9Q_f5JQXWkYsC5i-1" value="developer" style="shape=umlActor;verticalLabelPosition=bottom;verticalAlign=top;html=1;outlineConnect=0;" parent="1" vertex="1">
          <mxGeometry x="110" y="60" width="30" height="60" as="geometry" />
        </mxCell>
        <mxCell id="VnJmO9Q_f5JQXWkYsC5i-12" style="edgeStyle=orthogonalEdgeStyle;rounded=0;orthogonalLoop=1;jettySize=auto;html=1;exitX=1;exitY=0.5;exitDx=0;exitDy=0;entryX=0;entryY=0.5;entryDx=0;entryDy=0;" parent="1" source="VnJmO9Q_f5JQXWkYsC5i-2" target="VnJmO9Q_f5JQXWkYsC5i-7" edge="1">
          <mxGeometry relative="1" as="geometry" />
        </mxCell>
        <mxCell id="VnJmO9Q_f5JQXWkYsC5i-2" value="code change" style="rounded=1;whiteSpace=wrap;html=1;" parent="1" vertex="1">
          <mxGeometry x="80" y="190" width="120" height="60" as="geometry" />
        </mxCell>
        <mxCell id="VnJmO9Q_f5JQXWkYsC5i-3" value="Dockerfile&lt;div&gt;&lt;br&gt;&lt;/div&gt;" style="shape=document;whiteSpace=wrap;html=1;boundedLbl=1;" parent="1" vertex="1">
          <mxGeometry x="80" y="375" width="120" height="80" as="geometry" />
        </mxCell>
        <mxCell id="VnJmO9Q_f5JQXWkYsC5i-5" value="github actions&amp;nbsp;&lt;div&gt;workflow&lt;/div&gt;" style="shape=document;whiteSpace=wrap;html=1;boundedLbl=1;" parent="1" vertex="1">
          <mxGeometry x="80" y="275" width="120" height="80" as="geometry" />
        </mxCell>
        <mxCell id="VnJmO9Q_f5JQXWkYsC5i-6" value="aws ECS task&lt;div&gt;defination json&lt;/div&gt;" style="shape=document;whiteSpace=wrap;html=1;boundedLbl=1;" parent="1" vertex="1">
          <mxGeometry x="80" y="490" width="120" height="80" as="geometry" />
        </mxCell>
        <mxCell id="VnJmO9Q_f5JQXWkYsC5i-14" style="edgeStyle=orthogonalEdgeStyle;rounded=0;orthogonalLoop=1;jettySize=auto;html=1;exitX=1;exitY=0.5;exitDx=0;exitDy=0;entryX=0;entryY=0.5;entryDx=0;entryDy=0;" parent="1" source="VnJmO9Q_f5JQXWkYsC5i-7" target="VnJmO9Q_f5JQXWkYsC5i-8" edge="1">
          <mxGeometry relative="1" as="geometry" />
        </mxCell>
        <mxCell id="VnJmO9Q_f5JQXWkYsC5i-34" value="auto" style="edgeLabel;html=1;align=center;verticalAlign=middle;resizable=0;points=[];" parent="VnJmO9Q_f5JQXWkYsC5i-14" vertex="1" connectable="0">
          <mxGeometry x="-0.125" y="1" relative="1" as="geometry">
            <mxPoint as="offset" />
          </mxGeometry>
        </mxCell>
        <mxCell id="VnJmO9Q_f5JQXWkYsC5i-7" value="code repository" style="rounded=1;whiteSpace=wrap;html=1;" parent="1" vertex="1">
          <mxGeometry x="320" y="190" width="120" height="60" as="geometry" />
        </mxCell>
        <mxCell id="VnJmO9Q_f5JQXWkYsC5i-15" style="edgeStyle=orthogonalEdgeStyle;rounded=0;orthogonalLoop=1;jettySize=auto;html=1;exitX=0.5;exitY=1;exitDx=0;exitDy=0;entryX=1;entryY=0.25;entryDx=0;entryDy=0;" parent="1" source="VnJmO9Q_f5JQXWkYsC5i-8" target="VnJmO9Q_f5JQXWkYsC5i-10" edge="1">
          <mxGeometry relative="1" as="geometry" />
        </mxCell>
        <mxCell id="VnJmO9Q_f5JQXWkYsC5i-35" value="read yml file execute action" style="edgeLabel;html=1;align=center;verticalAlign=middle;resizable=0;points=[];" parent="VnJmO9Q_f5JQXWkYsC5i-15" vertex="1" connectable="0">
          <mxGeometry x="-0.0267" y="-1" relative="1" as="geometry">
            <mxPoint x="1" as="offset" />
          </mxGeometry>
        </mxCell>
        <mxCell id="VnJmO9Q_f5JQXWkYsC5i-8" value="actions" style="rounded=1;whiteSpace=wrap;html=1;" parent="1" vertex="1">
          <mxGeometry x="520" y="190" width="120" height="60" as="geometry" />
        </mxCell>
        <mxCell id="VnJmO9Q_f5JQXWkYsC5i-21" style="edgeStyle=orthogonalEdgeStyle;rounded=0;orthogonalLoop=1;jettySize=auto;html=1;exitX=0.992;exitY=0.375;exitDx=0;exitDy=0;entryX=0;entryY=0.5;entryDx=0;entryDy=0;exitPerimeter=0;" parent="1" source="VnJmO9Q_f5JQXWkYsC5i-9" target="VnJmO9Q_f5JQXWkYsC5i-19" edge="1">
          <mxGeometry relative="1" as="geometry" />
        </mxCell>
        <mxCell id="VnJmO9Q_f5JQXWkYsC5i-38" value="build" style="edgeLabel;html=1;align=center;verticalAlign=middle;resizable=0;points=[];" parent="VnJmO9Q_f5JQXWkYsC5i-21" vertex="1" connectable="0">
          <mxGeometry x="-0.1446" y="2" relative="1" as="geometry">
            <mxPoint as="offset" />
          </mxGeometry>
        </mxCell>
        <mxCell id="VnJmO9Q_f5JQXWkYsC5i-9" value="Dockerfile&lt;div&gt;&lt;br&gt;&lt;/div&gt;" style="shape=document;whiteSpace=wrap;html=1;boundedLbl=1;" parent="1" vertex="1">
          <mxGeometry x="320" y="375" width="120" height="80" as="geometry" />
        </mxCell>
        <mxCell id="VnJmO9Q_f5JQXWkYsC5i-20" style="edgeStyle=orthogonalEdgeStyle;rounded=0;orthogonalLoop=1;jettySize=auto;html=1;exitX=0;exitY=0.75;exitDx=0;exitDy=0;entryX=0;entryY=0.5;entryDx=0;entryDy=0;" parent="1" source="VnJmO9Q_f5JQXWkYsC5i-10" target="VnJmO9Q_f5JQXWkYsC5i-9" edge="1">
          <mxGeometry relative="1" as="geometry" />
        </mxCell>
        <mxCell id="VnJmO9Q_f5JQXWkYsC5i-36" value="build docker image" style="edgeLabel;html=1;align=center;verticalAlign=middle;resizable=0;points=[];" parent="VnJmO9Q_f5JQXWkYsC5i-20" vertex="1" connectable="0">
          <mxGeometry x="-0.1335" relative="1" as="geometry">
            <mxPoint as="offset" />
          </mxGeometry>
        </mxCell>
        <mxCell id="VnJmO9Q_f5JQXWkYsC5i-23" style="edgeStyle=orthogonalEdgeStyle;rounded=0;orthogonalLoop=1;jettySize=auto;html=1;exitX=0;exitY=0.25;exitDx=0;exitDy=0;entryX=0;entryY=0.25;entryDx=0;entryDy=0;elbow=vertical;curved=1;" parent="1" source="VnJmO9Q_f5JQXWkYsC5i-10" target="VnJmO9Q_f5JQXWkYsC5i-11" edge="1">
          <mxGeometry relative="1" as="geometry">
            <mxPoint x="280" y="290" as="sourcePoint" />
            <mxPoint x="280" y="520" as="targetPoint" />
            <Array as="points">
              <mxPoint x="320" y="290" />
              <mxPoint x="270" y="290" />
              <mxPoint x="270" y="505" />
            </Array>
          </mxGeometry>
        </mxCell>
        <mxCell id="VnJmO9Q_f5JQXWkYsC5i-37" value="Update image uri" style="edgeLabel;html=1;align=center;verticalAlign=middle;resizable=0;points=[];" parent="VnJmO9Q_f5JQXWkYsC5i-23" vertex="1" connectable="0">
          <mxGeometry x="0.4584" y="10" relative="1" as="geometry">
            <mxPoint as="offset" />
          </mxGeometry>
        </mxCell>
        <mxCell id="VnJmO9Q_f5JQXWkYsC5i-10" value="github actions&amp;nbsp;&lt;div&gt;workflow&lt;/div&gt;" style="shape=document;whiteSpace=wrap;html=1;boundedLbl=1;" parent="1" vertex="1">
          <mxGeometry x="320" y="275" width="120" height="80" as="geometry" />
        </mxCell>
        <mxCell id="VnJmO9Q_f5JQXWkYsC5i-24" style="edgeStyle=orthogonalEdgeStyle;rounded=0;orthogonalLoop=1;jettySize=auto;html=1;exitX=1;exitY=0.5;exitDx=0;exitDy=0;entryX=0;entryY=0.5;entryDx=0;entryDy=0;" parent="1" source="VnJmO9Q_f5JQXWkYsC5i-11" target="VnJmO9Q_f5JQXWkYsC5i-17" edge="1">
          <mxGeometry relative="1" as="geometry" />
        </mxCell>
        <mxCell id="VnJmO9Q_f5JQXWkYsC5i-40" value="run task create container" style="edgeLabel;html=1;align=center;verticalAlign=middle;resizable=0;points=[];" parent="VnJmO9Q_f5JQXWkYsC5i-24" vertex="1" connectable="0">
          <mxGeometry x="0.0322" y="1" relative="1" as="geometry">
            <mxPoint as="offset" />
          </mxGeometry>
        </mxCell>
        <mxCell id="VnJmO9Q_f5JQXWkYsC5i-11" value="aws ECS task&lt;div&gt;defination json&lt;/div&gt;" style="shape=document;whiteSpace=wrap;html=1;boundedLbl=1;" parent="1" vertex="1">
          <mxGeometry x="320" y="485" width="120" height="80" as="geometry" />
        </mxCell>
        <mxCell id="VnJmO9Q_f5JQXWkYsC5i-13" value="github" style="ellipse;shape=cloud;whiteSpace=wrap;html=1;" parent="1" vertex="1">
          <mxGeometry x="410" y="40" width="120" height="80" as="geometry" />
        </mxCell>
        <mxCell id="VnJmO9Q_f5JQXWkYsC5i-16" value="ECR" style="rounded=1;whiteSpace=wrap;html=1;" parent="1" vertex="1">
          <mxGeometry x="730" y="275" width="120" height="60" as="geometry" />
        </mxCell>
        <mxCell id="VnJmO9Q_f5JQXWkYsC5i-29" style="edgeStyle=orthogonalEdgeStyle;rounded=0;orthogonalLoop=1;jettySize=auto;html=1;exitX=0.5;exitY=1;exitDx=0;exitDy=0;" parent="1" source="VnJmO9Q_f5JQXWkYsC5i-17" target="VnJmO9Q_f5JQXWkYsC5i-27" edge="1">
          <mxGeometry relative="1" as="geometry" />
        </mxCell>
        <mxCell id="VnJmO9Q_f5JQXWkYsC5i-17" value="ECS" style="rounded=1;whiteSpace=wrap;html=1;" parent="1" vertex="1">
          <mxGeometry x="730" y="495" width="120" height="60" as="geometry" />
        </mxCell>
        <mxCell id="VnJmO9Q_f5JQXWkYsC5i-22" style="edgeStyle=orthogonalEdgeStyle;rounded=0;orthogonalLoop=1;jettySize=auto;html=1;exitX=1;exitY=0.5;exitDx=0;exitDy=0;entryX=0;entryY=0.5;entryDx=0;entryDy=0;" parent="1" source="VnJmO9Q_f5JQXWkYsC5i-19" target="VnJmO9Q_f5JQXWkYsC5i-16" edge="1">
          <mxGeometry relative="1" as="geometry" />
        </mxCell>
        <mxCell id="VnJmO9Q_f5JQXWkYsC5i-39" value="push" style="edgeLabel;html=1;align=center;verticalAlign=middle;resizable=0;points=[];" parent="VnJmO9Q_f5JQXWkYsC5i-22" vertex="1" connectable="0">
          <mxGeometry x="-0.0281" y="-3" relative="1" as="geometry">
            <mxPoint as="offset" />
          </mxGeometry>
        </mxCell>
        <mxCell id="VnJmO9Q_f5JQXWkYsC5i-19" value="docker image" style="rounded=0;whiteSpace=wrap;html=1;" parent="1" vertex="1">
          <mxGeometry x="520" y="375" width="120" height="60" as="geometry" />
        </mxCell>
        <mxCell id="VnJmO9Q_f5JQXWkYsC5i-25" value="aws" style="ellipse;shape=cloud;whiteSpace=wrap;html=1;" parent="1" vertex="1">
          <mxGeometry x="730" y="40" width="120" height="80" as="geometry" />
        </mxCell>
        <mxCell id="VnJmO9Q_f5JQXWkYsC5i-30" style="edgeStyle=orthogonalEdgeStyle;rounded=0;orthogonalLoop=1;jettySize=auto;html=1;exitX=0.5;exitY=1;exitDx=0;exitDy=0;entryX=0.5;entryY=0;entryDx=0;entryDy=0;" parent="1" source="VnJmO9Q_f5JQXWkYsC5i-27" target="VnJmO9Q_f5JQXWkYsC5i-28" edge="1">
          <mxGeometry relative="1" as="geometry" />
        </mxCell>
        <mxCell id="VnJmO9Q_f5JQXWkYsC5i-27" value="emsp-accts" style="rounded=0;whiteSpace=wrap;html=1;" parent="1" vertex="1">
          <mxGeometry x="730" y="590" width="120" height="60" as="geometry" />
        </mxCell>
        <mxCell id="VnJmO9Q_f5JQXWkYsC5i-28" value="RDS（MySQL）" style="rounded=1;whiteSpace=wrap;html=1;" parent="1" vertex="1">
          <mxGeometry x="730" y="690" width="120" height="60" as="geometry" />
        </mxCell>
        <mxCell id="VnJmO9Q_f5JQXWkYsC5i-33" value="push" style="text;html=1;align=center;verticalAlign=middle;resizable=0;points=[];autosize=1;strokeColor=none;fillColor=none;" parent="1" vertex="1">
          <mxGeometry x="225" y="198" width="50" height="30" as="geometry" />
        </mxCell>
        <mxCell id="VnJmO9Q_f5JQXWkYsC5i-41" value="access" style="text;html=1;align=center;verticalAlign=middle;resizable=0;points=[];autosize=1;strokeColor=none;fillColor=none;" parent="1" vertex="1">
          <mxGeometry x="770" y="648" width="60" height="30" as="geometry" />
        </mxCell>
      </root>
    </mxGraphModel>
  </diagram>
  <diagram name="deploy to Azure" id="A9780YONwmuVO2nEA40g">
    <mxGraphModel dx="948" dy="679" grid="1" gridSize="10" guides="1" tooltips="1" connect="1" arrows="1" fold="1" page="1" pageScale="1" pageWidth="827" pageHeight="1169" math="0" shadow="0">
      <root>
        <mxCell id="QWXOEzKYlZjrQW5Sk_ux-0" />
        <mxCell id="QWXOEzKYlZjrQW5Sk_ux-1" parent="QWXOEzKYlZjrQW5Sk_ux-0" />
        <mxCell id="QWXOEzKYlZjrQW5Sk_ux-2" value="" style="rounded=1;whiteSpace=wrap;html=1;fillColor=#ffe6cc;strokeColor=#d79b00;" parent="QWXOEzKYlZjrQW5Sk_ux-1" vertex="1">
          <mxGeometry x="675" y="10" width="210" height="760" as="geometry" />
        </mxCell>
        <mxCell id="QWXOEzKYlZjrQW5Sk_ux-3" value="" style="rounded=1;whiteSpace=wrap;html=1;fillColor=#d5e8d4;strokeColor=#82b366;" parent="QWXOEzKYlZjrQW5Sk_ux-1" vertex="1">
          <mxGeometry x="250" y="20" width="390" height="610" as="geometry" />
        </mxCell>
        <mxCell id="QWXOEzKYlZjrQW5Sk_ux-4" value="" style="rounded=1;whiteSpace=wrap;html=1;fillColor=#dae8fc;strokeColor=#6c8ebf;" parent="QWXOEzKYlZjrQW5Sk_ux-1" vertex="1">
          <mxGeometry x="30" y="20" width="190" height="740" as="geometry" />
        </mxCell>
        <mxCell id="QWXOEzKYlZjrQW5Sk_ux-5" value="developer" style="shape=umlActor;verticalLabelPosition=bottom;verticalAlign=top;html=1;outlineConnect=0;" parent="QWXOEzKYlZjrQW5Sk_ux-1" vertex="1">
          <mxGeometry x="90" y="50" width="30" height="60" as="geometry" />
        </mxCell>
        <mxCell id="QWXOEzKYlZjrQW5Sk_ux-6" style="edgeStyle=orthogonalEdgeStyle;rounded=0;orthogonalLoop=1;jettySize=auto;html=1;exitX=1;exitY=0.5;exitDx=0;exitDy=0;entryX=0;entryY=0.5;entryDx=0;entryDy=0;" parent="QWXOEzKYlZjrQW5Sk_ux-1" source="QWXOEzKYlZjrQW5Sk_ux-7" target="QWXOEzKYlZjrQW5Sk_ux-13" edge="1">
          <mxGeometry relative="1" as="geometry" />
        </mxCell>
        <mxCell id="QWXOEzKYlZjrQW5Sk_ux-7" value="code change" style="rounded=1;whiteSpace=wrap;html=1;" parent="QWXOEzKYlZjrQW5Sk_ux-1" vertex="1">
          <mxGeometry x="60" y="180" width="120" height="60" as="geometry" />
        </mxCell>
        <mxCell id="QWXOEzKYlZjrQW5Sk_ux-8" value="Dockerfile&lt;div&gt;&lt;br&gt;&lt;/div&gt;" style="shape=document;whiteSpace=wrap;html=1;boundedLbl=1;" parent="QWXOEzKYlZjrQW5Sk_ux-1" vertex="1">
          <mxGeometry x="60" y="365" width="120" height="80" as="geometry" />
        </mxCell>
        <mxCell id="QWXOEzKYlZjrQW5Sk_ux-9" value="github actions&amp;nbsp;&lt;div&gt;workflow&lt;/div&gt;" style="shape=document;whiteSpace=wrap;html=1;boundedLbl=1;" parent="QWXOEzKYlZjrQW5Sk_ux-1" vertex="1">
          <mxGeometry x="60" y="265" width="120" height="80" as="geometry" />
        </mxCell>
        <mxCell id="QWXOEzKYlZjrQW5Sk_ux-11" style="edgeStyle=orthogonalEdgeStyle;rounded=0;orthogonalLoop=1;jettySize=auto;html=1;exitX=1;exitY=0.5;exitDx=0;exitDy=0;entryX=0;entryY=0.5;entryDx=0;entryDy=0;" parent="QWXOEzKYlZjrQW5Sk_ux-1" source="QWXOEzKYlZjrQW5Sk_ux-13" target="QWXOEzKYlZjrQW5Sk_ux-16" edge="1">
          <mxGeometry relative="1" as="geometry" />
        </mxCell>
        <mxCell id="QWXOEzKYlZjrQW5Sk_ux-12" value="auto" style="edgeLabel;html=1;align=center;verticalAlign=middle;resizable=0;points=[];" parent="QWXOEzKYlZjrQW5Sk_ux-11" vertex="1" connectable="0">
          <mxGeometry x="-0.125" y="1" relative="1" as="geometry">
            <mxPoint as="offset" />
          </mxGeometry>
        </mxCell>
        <mxCell id="QWXOEzKYlZjrQW5Sk_ux-13" value="code repository" style="rounded=1;whiteSpace=wrap;html=1;" parent="QWXOEzKYlZjrQW5Sk_ux-1" vertex="1">
          <mxGeometry x="300" y="180" width="120" height="60" as="geometry" />
        </mxCell>
        <mxCell id="QWXOEzKYlZjrQW5Sk_ux-14" style="edgeStyle=orthogonalEdgeStyle;rounded=0;orthogonalLoop=1;jettySize=auto;html=1;exitX=0.5;exitY=1;exitDx=0;exitDy=0;entryX=1;entryY=0.25;entryDx=0;entryDy=0;" parent="QWXOEzKYlZjrQW5Sk_ux-1" source="QWXOEzKYlZjrQW5Sk_ux-16" target="QWXOEzKYlZjrQW5Sk_ux-24" edge="1">
          <mxGeometry relative="1" as="geometry" />
        </mxCell>
        <mxCell id="QWXOEzKYlZjrQW5Sk_ux-15" value="read yml file execute action" style="edgeLabel;html=1;align=center;verticalAlign=middle;resizable=0;points=[];" parent="QWXOEzKYlZjrQW5Sk_ux-14" vertex="1" connectable="0">
          <mxGeometry x="-0.0267" y="-1" relative="1" as="geometry">
            <mxPoint x="1" as="offset" />
          </mxGeometry>
        </mxCell>
        <mxCell id="QWXOEzKYlZjrQW5Sk_ux-16" value="actions" style="rounded=1;whiteSpace=wrap;html=1;" parent="QWXOEzKYlZjrQW5Sk_ux-1" vertex="1">
          <mxGeometry x="500" y="180" width="120" height="60" as="geometry" />
        </mxCell>
        <mxCell id="QWXOEzKYlZjrQW5Sk_ux-17" style="edgeStyle=orthogonalEdgeStyle;rounded=0;orthogonalLoop=1;jettySize=auto;html=1;exitX=0.992;exitY=0.375;exitDx=0;exitDy=0;entryX=0;entryY=0.5;entryDx=0;entryDy=0;exitPerimeter=0;" parent="QWXOEzKYlZjrQW5Sk_ux-1" source="QWXOEzKYlZjrQW5Sk_ux-19" target="QWXOEzKYlZjrQW5Sk_ux-34" edge="1">
          <mxGeometry relative="1" as="geometry" />
        </mxCell>
        <mxCell id="QWXOEzKYlZjrQW5Sk_ux-18" value="build" style="edgeLabel;html=1;align=center;verticalAlign=middle;resizable=0;points=[];" parent="QWXOEzKYlZjrQW5Sk_ux-17" vertex="1" connectable="0">
          <mxGeometry x="-0.1446" y="2" relative="1" as="geometry">
            <mxPoint as="offset" />
          </mxGeometry>
        </mxCell>
        <mxCell id="QWXOEzKYlZjrQW5Sk_ux-19" value="Dockerfile&lt;div&gt;&lt;br&gt;&lt;/div&gt;" style="shape=document;whiteSpace=wrap;html=1;boundedLbl=1;" parent="QWXOEzKYlZjrQW5Sk_ux-1" vertex="1">
          <mxGeometry x="300" y="365" width="120" height="80" as="geometry" />
        </mxCell>
        <mxCell id="QWXOEzKYlZjrQW5Sk_ux-20" style="edgeStyle=orthogonalEdgeStyle;rounded=0;orthogonalLoop=1;jettySize=auto;html=1;exitX=0;exitY=0.75;exitDx=0;exitDy=0;entryX=0;entryY=0.5;entryDx=0;entryDy=0;" parent="QWXOEzKYlZjrQW5Sk_ux-1" source="QWXOEzKYlZjrQW5Sk_ux-24" target="QWXOEzKYlZjrQW5Sk_ux-19" edge="1">
          <mxGeometry relative="1" as="geometry" />
        </mxCell>
        <mxCell id="QWXOEzKYlZjrQW5Sk_ux-21" value="build docker image" style="edgeLabel;html=1;align=center;verticalAlign=middle;resizable=0;points=[];" parent="QWXOEzKYlZjrQW5Sk_ux-20" vertex="1" connectable="0">
          <mxGeometry x="-0.1335" relative="1" as="geometry">
            <mxPoint as="offset" />
          </mxGeometry>
        </mxCell>
        <mxCell id="QWXOEzKYlZjrQW5Sk_ux-24" value="github actions&amp;nbsp;&lt;div&gt;workflow&lt;/div&gt;" style="shape=document;whiteSpace=wrap;html=1;boundedLbl=1;" parent="QWXOEzKYlZjrQW5Sk_ux-1" vertex="1">
          <mxGeometry x="300" y="265" width="120" height="80" as="geometry" />
        </mxCell>
        <mxCell id="QWXOEzKYlZjrQW5Sk_ux-28" value="github" style="ellipse;shape=cloud;whiteSpace=wrap;html=1;" parent="QWXOEzKYlZjrQW5Sk_ux-1" vertex="1">
          <mxGeometry x="390" y="30" width="120" height="80" as="geometry" />
        </mxCell>
        <mxCell id="rIUX4r7gkvvc-HHFKIst-0" style="edgeStyle=orthogonalEdgeStyle;rounded=0;orthogonalLoop=1;jettySize=auto;html=1;exitX=0.5;exitY=1;exitDx=0;exitDy=0;" parent="QWXOEzKYlZjrQW5Sk_ux-1" source="QWXOEzKYlZjrQW5Sk_ux-29" target="QWXOEzKYlZjrQW5Sk_ux-37" edge="1">
          <mxGeometry relative="1" as="geometry" />
        </mxCell>
        <mxCell id="QWXOEzKYlZjrQW5Sk_ux-29" value="emsp-accts-uat" style="rounded=1;whiteSpace=wrap;html=1;" parent="QWXOEzKYlZjrQW5Sk_ux-1" vertex="1">
          <mxGeometry x="720" y="365" width="120" height="60" as="geometry" />
        </mxCell>
        <mxCell id="QWXOEzKYlZjrQW5Sk_ux-32" style="edgeStyle=orthogonalEdgeStyle;rounded=0;orthogonalLoop=1;jettySize=auto;html=1;exitX=1;exitY=0.5;exitDx=0;exitDy=0;entryX=0;entryY=0.5;entryDx=0;entryDy=0;" parent="QWXOEzKYlZjrQW5Sk_ux-1" source="QWXOEzKYlZjrQW5Sk_ux-34" target="QWXOEzKYlZjrQW5Sk_ux-29" edge="1">
          <mxGeometry relative="1" as="geometry" />
        </mxCell>
        <mxCell id="QWXOEzKYlZjrQW5Sk_ux-33" value="push" style="edgeLabel;html=1;align=center;verticalAlign=middle;resizable=0;points=[];" parent="QWXOEzKYlZjrQW5Sk_ux-32" vertex="1" connectable="0">
          <mxGeometry x="-0.0281" y="-3" relative="1" as="geometry">
            <mxPoint as="offset" />
          </mxGeometry>
        </mxCell>
        <mxCell id="QWXOEzKYlZjrQW5Sk_ux-34" value="docker image" style="rounded=0;whiteSpace=wrap;html=1;" parent="QWXOEzKYlZjrQW5Sk_ux-1" vertex="1">
          <mxGeometry x="500" y="365" width="120" height="60" as="geometry" />
        </mxCell>
        <mxCell id="QWXOEzKYlZjrQW5Sk_ux-35" value="Azure Web&lt;div&gt;App&lt;/div&gt;" style="ellipse;shape=cloud;whiteSpace=wrap;html=1;" parent="QWXOEzKYlZjrQW5Sk_ux-1" vertex="1">
          <mxGeometry x="710" y="30" width="120" height="80" as="geometry" />
        </mxCell>
        <mxCell id="QWXOEzKYlZjrQW5Sk_ux-36" style="edgeStyle=orthogonalEdgeStyle;rounded=0;orthogonalLoop=1;jettySize=auto;html=1;exitX=0.5;exitY=1;exitDx=0;exitDy=0;entryX=0.5;entryY=0;entryDx=0;entryDy=0;" parent="QWXOEzKYlZjrQW5Sk_ux-1" source="QWXOEzKYlZjrQW5Sk_ux-37" target="QWXOEzKYlZjrQW5Sk_ux-38" edge="1">
          <mxGeometry relative="1" as="geometry" />
        </mxCell>
        <mxCell id="QWXOEzKYlZjrQW5Sk_ux-37" value="emsp-accts-2" style="rounded=0;whiteSpace=wrap;html=1;" parent="QWXOEzKYlZjrQW5Sk_ux-1" vertex="1">
          <mxGeometry x="720" y="580" width="120" height="60" as="geometry" />
        </mxCell>
        <mxCell id="QWXOEzKYlZjrQW5Sk_ux-38" value="RDS（MySQL）" style="rounded=1;whiteSpace=wrap;html=1;" parent="QWXOEzKYlZjrQW5Sk_ux-1" vertex="1">
          <mxGeometry x="720" y="680" width="120" height="60" as="geometry" />
        </mxCell>
        <mxCell id="QWXOEzKYlZjrQW5Sk_ux-39" value="push" style="text;html=1;align=center;verticalAlign=middle;resizable=0;points=[];autosize=1;strokeColor=none;fillColor=none;" parent="QWXOEzKYlZjrQW5Sk_ux-1" vertex="1">
          <mxGeometry x="205" y="188" width="50" height="30" as="geometry" />
        </mxCell>
        <mxCell id="QWXOEzKYlZjrQW5Sk_ux-40" value="access" style="text;html=1;align=center;verticalAlign=middle;resizable=0;points=[];autosize=1;strokeColor=none;fillColor=none;" parent="QWXOEzKYlZjrQW5Sk_ux-1" vertex="1">
          <mxGeometry x="760" y="638" width="60" height="30" as="geometry" />
        </mxCell>
      </root>
    </mxGraphModel>
  </diagram>
</mxfile>
